<svg xmlns="http://www.w3.org/2000/svg" viewBox="0 0 32 32" fill="none">
  <rect width="32" height="32" rx="8" fill="#059669"/>
  <path d="M16 6C12 6 9 9.5 9 13.5C9 17 11 19.5 13.5 21L13.5 25C13.5 25.8 14.2 26.5 15 26.5H17C17.8 26.5 18.5 25.8 18.5 25L18.5 21C21 19.5 23 17 23 13.5C23 9.5 20 6 16 6Z" fill="white"/>
  <path d="M16 8.5C16 8.5 13 11 13 14C13 14 14.5 13 16 13V8.5Z" fill="#059669" opacity="0.4"/>
  <path d="M16 8.5C16 8.5 19 11 19 14C19 14 17.5 13 16 13V8.5Z" fill="#059669" opacity="0.6"/>
</svg>
